<svg width="25" height="25" viewBox="0 0 25 25" fill="none" xmlns="http://www.w3.org/2000/svg">
<path fill-rule="evenodd" clip-rule="evenodd" d="M16.1806 3.2793H8.09031C5.29772 3.2793 3.03387 5.54315 3.03387 8.33574V16.426C3.03387 19.2186 5.29772 21.4825 8.09031 21.4825H16.1806C18.9732 21.4825 21.2371 19.2186 21.2371 16.426V8.33574C21.2371 5.54315 18.9732 3.2793 16.1806 3.2793ZM19.4673 16.426C19.4617 18.2389 17.9935 19.7072 16.1806 19.7127H8.09031C6.27743 19.7072 4.80918 18.2389 4.80363 16.426V8.33574C4.80918 6.52285 6.27743 5.0546 8.09031 5.04905H16.1806C17.9935 5.0546 19.4617 6.52285 19.4673 8.33574V16.426ZM16.9391 8.58856C17.4976 8.58856 17.9504 8.13579 17.9504 7.57727C17.9504 7.01876 17.4976 6.56598 16.9391 6.56598C16.3806 6.56598 15.9278 7.01876 15.9278 7.57727C15.9278 8.13579 16.3806 8.58856 16.9391 8.58856ZM12.1355 7.83009C9.62213 7.83009 7.58467 9.86756 7.58467 12.3809C7.58467 14.8942 9.62213 16.9317 12.1355 16.9317C14.6488 16.9317 16.6863 14.8942 16.6863 12.3809C16.689 11.1731 16.2104 10.014 15.3563 9.16002C14.5023 8.30599 13.3432 7.8274 12.1355 7.83009ZM9.35442 12.3809C9.35442 13.9168 10.5995 15.1619 12.1355 15.1619C13.6714 15.1619 14.9165 13.9168 14.9165 12.3809C14.9165 10.8449 13.6714 9.59985 12.1355 9.59985C10.5995 9.59985 9.35442 10.8449 9.35442 12.3809Z" fill="white"/>
</svg>
