<svg width="24" height="24" viewBox="0 0 24 24" fill="none" xmlns="http://www.w3.org/2000/svg">
<path opacity="0.2" d="M16.5 9C16.5 9.89002 16.2361 10.76 15.7416 11.5001C15.2471 12.2401 14.5443 12.8169 13.7221 13.1575C12.8998 13.4981 11.995 13.5872 11.1221 13.4135C10.2492 13.2399 9.44736 12.8113 8.81802 12.182C8.18869 11.5526 7.7601 10.7508 7.58647 9.87791C7.41283 9.00499 7.50195 8.10019 7.84254 7.27792C8.18314 6.45566 8.75991 5.75285 9.49994 5.25839C10.24 4.76392 11.11 4.5 12 4.5C13.1935 4.5 14.3381 4.97411 15.182 5.81802C16.0259 6.66193 16.5 7.80653 16.5 9Z" fill="white" fill-opacity="0.8"/>
<path d="M20.25 9C20.2508 7.60969 19.9003 6.24172 19.2309 5.02315C18.5616 3.80458 17.5951 2.77493 16.4213 2.02985C15.2475 1.28476 13.9044 0.848406 12.5168 0.761308C11.1293 0.674211 9.74217 0.939197 8.48441 1.53165C7.22665 2.12411 6.13901 3.02482 5.32253 4.15013C4.50604 5.27543 3.98718 6.58883 3.81415 7.96833C3.64111 9.34783 3.81951 10.7487 4.33278 12.0408C4.84605 13.3329 5.67753 14.4743 6.75 15.3591V22.5C6.74991 22.6279 6.78253 22.7537 6.84477 22.8655C6.907 22.9772 6.99678 23.0712 7.10558 23.1384C7.21437 23.2057 7.33856 23.244 7.46634 23.2498C7.59412 23.2555 7.72124 23.2285 7.83563 23.1713L12 21.0938L16.1653 23.1759C16.2697 23.2259 16.3842 23.2512 16.5 23.25C16.6989 23.25 16.8897 23.171 17.0303 23.0303C17.171 22.8897 17.25 22.6989 17.25 22.5V15.3591C18.1884 14.5862 18.944 13.6152 19.4627 12.5158C19.9814 11.4163 20.2503 10.2157 20.25 9ZM5.25 9C5.25 7.66498 5.64588 6.35993 6.38758 5.2499C7.12928 4.13987 8.18349 3.27471 9.41689 2.76381C10.6503 2.25292 12.0075 2.11925 13.3169 2.3797C14.6262 2.64015 15.829 3.28303 16.773 4.22703C17.717 5.17103 18.3599 6.37377 18.6203 7.68314C18.8808 8.99251 18.7471 10.3497 18.2362 11.5831C17.7253 12.8165 16.8601 13.8707 15.7501 14.6124C14.6401 15.3541 13.335 15.75 12 15.75C10.2104 15.748 8.49466 15.0362 7.22922 13.7708C5.96378 12.5053 5.25199 10.7896 5.25 9ZM15.75 21.2869L12.3347 19.5797C12.2305 19.5275 12.1156 19.5004 11.9991 19.5004C11.8825 19.5004 11.7676 19.5275 11.6634 19.5797L8.25 21.2869V16.3472C9.41097 16.9406 10.6962 17.25 12 17.25C13.3038 17.25 14.589 16.9406 15.75 16.3472V21.2869ZM12 14.25C13.0384 14.25 14.0534 13.9421 14.9167 13.3652C15.7801 12.7883 16.453 11.9684 16.8504 11.0091C17.2477 10.0498 17.3517 8.99418 17.1491 7.97578C16.9466 6.95738 16.4465 6.02192 15.7123 5.28769C14.9781 4.55346 14.0426 4.05345 13.0242 3.85088C12.0058 3.64831 10.9502 3.75227 9.99091 4.14963C9.0316 4.54699 8.21166 5.2199 7.63479 6.08326C7.05791 6.94662 6.75 7.96165 6.75 9C6.75149 10.3919 7.30509 11.7264 8.28934 12.7107C9.27358 13.6949 10.6081 14.2485 12 14.25ZM12 5.25C12.7417 5.25 13.4667 5.46993 14.0834 5.88199C14.7001 6.29405 15.1807 6.87971 15.4646 7.56494C15.7484 8.25016 15.8226 9.00416 15.6779 9.73159C15.5333 10.459 15.1761 11.1272 14.6517 11.6517C14.1272 12.1761 13.459 12.5333 12.7316 12.6779C12.0042 12.8226 11.2502 12.7484 10.5649 12.4645C9.87972 12.1807 9.29405 11.7001 8.88199 11.0834C8.46994 10.4667 8.25 9.74168 8.25 9C8.25 8.00544 8.64509 7.05161 9.34835 6.34835C10.0516 5.64509 11.0054 5.25 12 5.25Z" fill="white" fill-opacity="0.8"/>
</svg>