<svg width="84" height="14" viewBox="0 0 84 14" fill="none" xmlns="http://www.w3.org/2000/svg">
<path d="M6.55308 0.00311279L8.02434 4.53118H12.7854L8.93363 7.32968L10.4049 11.8577L6.55308 9.05925L2.70128 11.8577L4.17253 7.32968L0.320731 4.53118H5.08182L6.55308 0.00311279Z" fill="#00C950"/>
<path d="M24.0294 0.00335693L25.5007 4.53142H30.2617L26.4099 7.32992L27.8812 11.858L24.0294 9.05949L20.1776 11.858L21.6489 7.32992L17.797 4.53142H22.5581L24.0294 0.00335693Z" fill="#00C950"/>
<path d="M41.5018 0.00335693L42.973 4.53142H47.7341L43.8823 7.32992L45.3536 11.858L41.5018 9.05949L37.6499 11.858L39.1212 7.32992L35.2694 4.53142H40.0305L41.5018 0.00335693Z" fill="#00C950"/>
<path d="M58.9781 0.00335693L60.4493 4.53142H65.2104L61.3586 7.32992L62.8299 11.858L58.9781 9.05949L55.1263 11.858L56.5975 7.32992L52.7457 4.53142H57.5068L58.9781 0.00335693Z" fill="#00C950"/>
<path d="M76.7377 0.000366211L78.2089 4.52843H82.97L79.1182 7.32693L80.5895 11.855L76.7377 9.0565L72.8858 11.855L74.3571 7.32693L70.5053 4.52843H75.2664L76.7377 0.000366211Z" fill="#00C950"/>
<mask id="mask0_1_152" style="mask-type:alpha" maskUnits="userSpaceOnUse" x="70" y="0" width="13" height="12">
<path d="M76.7377 0L78.2089 4.52807H82.97L79.1182 7.32657L80.5895 11.8546L76.7377 9.05614L72.8858 11.8546L74.3571 7.32657L70.5053 4.52807H75.2664L76.7377 0Z" fill="#DEA453"/>
</mask>
<g mask="url(#mask0_1_152)">
<rect x="79.1846" width="3.9" height="12" fill="#E1E1E1"/>
</g>
</svg>
